<svg width="37" height="37" viewBox="0 0 37 37" fill="none" xmlns="http://www.w3.org/2000/svg">
<path d="M16.4233 0.132085C7.89604 1.08624 1.03714 8.14701 0.110264 16.7344C-0.816613 25.7035 4.18853 33.7184 11.7889 36.7717C12.3451 36.9626 12.9012 36.5809 12.9012 35.8176V32.7643C12.9012 32.7643 12.1597 32.9551 11.2328 32.9551C8.63754 32.9551 7.52529 30.6651 7.33991 29.3293C7.15454 28.566 6.78378 27.9935 6.22766 27.421C5.67153 27.2302 5.48616 27.2302 5.48616 27.0393C5.48616 26.6577 6.04228 26.6577 6.22766 26.6577C7.33991 26.6577 8.26679 27.9935 8.63754 28.566C9.56442 30.0926 10.6767 30.4743 11.2328 30.4743C11.9743 30.4743 12.5304 30.2835 12.9012 30.0926C13.0866 28.7568 13.6427 27.421 14.7549 26.6577C10.4913 25.7035 7.33991 23.2227 7.33991 19.0244C7.33991 16.9253 8.26679 14.8261 9.56442 13.2995C9.37904 12.9178 9.19367 11.9636 9.19367 10.6278C9.19367 9.86449 9.19367 8.7195 9.74979 7.57451C9.74979 7.57451 12.3451 7.57451 14.9403 10.0553C15.8672 9.67366 17.1648 9.48283 18.4624 9.48283C19.7601 9.48283 21.0577 9.67366 22.17 10.0553C24.5798 7.57451 27.3605 7.57451 27.3605 7.57451C27.7312 8.7195 27.7312 9.86449 27.7312 10.6278C27.7312 12.1545 27.5458 12.9178 27.3605 13.2995C28.6581 14.8261 29.585 16.7344 29.585 19.0244C29.585 23.2227 26.4336 25.7035 22.17 26.6577C23.2822 27.6118 24.0237 29.3293 24.0237 31.0468V36.0084C24.0237 36.5809 24.5798 37.1534 25.3213 36.9626C32.1802 34.1001 37 27.2302 37 19.2152C37 7.76535 27.5458 -1.20374 16.4233 0.132085Z" fill="#79A3FC"/>
</svg>
