<svg width="37" height="37" viewBox="0 0 37 37" fill="none" xmlns="http://www.w3.org/2000/svg">
<path d="M32.5952 0H4.40476C1.97333 0 0 1.97333 0 4.40476V32.5952C0 35.0267 1.97333 37 4.40476 37H32.5952C35.0267 37 37 35.0267 37 32.5952V4.40476C37 1.97333 35.0267 0 32.5952 0ZM11.4524 14.0952V30.8333H6.16667V14.0952H11.4524ZM6.16667 9.22357C6.16667 7.99024 7.22381 7.04762 8.80952 7.04762C10.3952 7.04762 11.3907 7.99024 11.4524 9.22357C11.4524 10.4569 10.4657 11.4524 8.80952 11.4524C7.22381 11.4524 6.16667 10.4569 6.16667 9.22357ZM30.8333 30.8333H25.5476C25.5476 30.8333 25.5476 22.6757 25.5476 22.0238C25.5476 20.2619 24.6667 18.5 22.4643 18.4648H22.3938C20.2619 18.4648 19.381 20.2795 19.381 22.0238C19.381 22.8255 19.381 30.8333 19.381 30.8333H14.0952V14.0952H19.381V16.3505C19.381 16.3505 21.0812 14.0952 24.4993 14.0952C27.9967 14.0952 30.8333 16.5002 30.8333 21.3719V30.8333Z" fill="#79A3FC"/>
</svg>
