<svg width="37" height="37" viewBox="0 0 37 37" fill="none" xmlns="http://www.w3.org/2000/svg">
<path fill-rule="evenodd" clip-rule="evenodd" d="M0.000119386 18.5C0.000119386 8.29926 8.29935 0 18.5001 0C28.7008 0 37 8.29926 37 18.5C37 28.7007 28.7008 37 18.5001 37C15.4516 37 12.4377 36.2423 9.76165 34.8057L0.997508 36.9767C0.933964 36.992 0.868812 37 0.804465 37C0.589704 37 0.380575 36.9139 0.226945 36.7555C0.0274672 36.5504 -0.047337 36.2544 0.0298801 35.9785L2.38339 27.5811C0.822964 24.8173 0.000119386 21.6852 0.000119386 18.5ZM30.0189 27.724C29.4506 29.118 26.9899 30.2968 25.829 30.4152C24.7869 30.5206 23.4747 30.5243 22.0599 29.9928C21.2025 29.6698 20.1024 29.2432 18.7006 28.5485C13.1996 25.823 9.66531 20.134 8.99053 19.0478C8.94243 18.9704 8.90886 18.9163 8.89015 18.8884L8.88486 18.8805C8.58553 18.4327 6.59907 15.4611 6.74194 12.492C6.87655 9.6948 8.30605 8.29408 8.96367 7.6497C9.00835 7.60592 9.04946 7.56564 9.08637 7.52864C9.66647 6.94708 10.3232 6.82631 10.7236 6.84558C10.7637 6.84955 10.8189 6.85238 10.8861 6.85581C11.4367 6.88396 12.7905 6.95319 13.1736 8.03006C13.3222 8.44755 13.5405 9.06957 13.7699 9.72302C14.2218 11.0107 14.7166 12.4203 14.8053 12.6275C14.9411 12.9387 15.0236 13.2986 14.8049 13.694C14.7727 13.7523 14.7427 13.8074 14.7141 13.8601C14.5488 14.1647 14.4276 14.3879 14.1565 14.6783C14.0494 14.793 13.9387 14.9168 13.828 15.0405C13.6102 15.2839 13.3928 15.5268 13.2049 15.699C12.8895 15.9876 12.5617 16.3005 12.882 16.9254C13.2024 17.5503 14.3111 19.5959 16.0182 21.2915C17.8514 23.1129 19.4825 23.9248 20.3097 24.3365C20.4717 24.4172 20.6029 24.4825 20.6987 24.537C21.2837 24.8699 21.6368 24.8357 22.0059 24.4475C22.375 24.0583 23.5913 22.7465 24.0199 22.1587C24.4485 21.5709 24.8441 21.6901 25.3852 21.9197C25.9263 22.1482 28.806 23.7583 29.391 24.0912C29.5059 24.1565 29.6134 24.2157 29.713 24.2705C30.1206 24.4948 30.3963 24.6464 30.5074 24.8556C30.6457 25.1148 30.5871 26.3309 30.0189 27.724Z" fill="#79A3FC"/>
</svg>
